<svg width="25" height="25" viewBox="0 0 25 25" fill="none" xmlns="http://www.w3.org/2000/svg">
<path d="M20.126 5.79375C19.9678 5.71192 19.8138 5.62223 19.6645 5.525C19.2308 5.23825 18.8332 4.90041 18.4802 4.51875C17.5958 3.50729 17.2656 2.48125 17.1447 1.76354H17.1489C17.0479 1.16667 17.0895 0.78125 17.0968 0.78125H13.0708V16.3469C13.0708 16.5552 13.0708 16.7625 13.0624 16.9667C13.0624 16.9917 13.0593 17.0146 13.0583 17.0427C13.0583 17.0531 13.0583 17.0656 13.0552 17.0771V17.0865C13.0129 17.6448 12.834 18.1842 12.5343 18.6572C12.2346 19.1302 11.8232 19.5223 11.3364 19.799C10.8285 20.0879 10.2541 20.2394 9.66974 20.2385C7.79474 20.2385 6.2739 18.7094 6.2739 16.8208C6.2739 14.9313 7.79474 13.4021 9.66974 13.4021C10.0249 13.4021 10.3781 13.4583 10.7156 13.5687L10.7208 9.46875C9.69579 9.33651 8.65452 9.41819 7.66269 9.70864C6.67086 9.99909 5.75002 10.492 4.95828 11.1562C4.26438 11.7589 3.68097 12.478 3.23432 13.2812C3.06453 13.574 2.42286 14.7521 2.34578 16.6625C2.29682 17.7458 2.62286 18.8708 2.77807 19.3344V19.3448C2.87494 19.6177 3.25411 20.551 3.87078 21.3375C4.36806 21.9688 4.95562 22.5233 5.61453 22.9833V22.9729L5.6239 22.9833C7.57182 24.3062 9.73328 24.2198 9.73328 24.2198C10.1072 24.2042 11.3604 24.2198 12.7833 23.5458C14.3614 22.7979 15.2593 21.6844 15.2593 21.6844C15.8334 21.0189 16.2899 20.2605 16.6093 19.4417C16.9739 18.4833 17.0947 17.3354 17.0947 16.8771V8.61771C17.1437 8.64687 17.7947 9.07708 17.7947 9.07708C17.7947 9.07708 18.7322 9.67813 20.1937 10.0688C21.2416 10.3469 22.6552 10.4062 22.6552 10.4062V6.40937C22.1604 6.46354 21.1552 6.30729 20.1249 5.79479L20.126 5.79375Z" fill="white"/>
</svg>
