<svg width="45" height="45" viewBox="0 0 45 45" fill="none" xmlns="http://www.w3.org/2000/svg">
<g clip-path="url(#clip0_8_4505)">
<path d="M45 11.4826L45.0018 11.3007C45.0018 9.90758 44.8368 8.55383 44.5275 7.2582L44.5518 7.37633C43.9927 5.02563 42.5374 2.98634 40.4962 1.6932L40.4587 1.6707C39.4075 0.990085 38.2295 0.528977 36.9956 0.315078L36.9393 0.307578C35.9774 0.139182 35.0039 0.0451538 34.0275 0.0263281H34.0068C33.9318 0.0263281 33.8512 0.00757813 33.7743 0.00195312H11.2275C10.9425 0.0207031 10.665 0.0338281 10.3743 0.0507031C8.93985 0.0772304 7.51955 0.340132 6.1706 0.828828L6.26247 0.800703C5.06866 1.25305 3.97905 1.94292 3.05957 2.82855C2.14009 3.71419 1.40987 4.77719 0.913098 5.9532L0.890598 6.01508C0.571848 6.78195 0.333723 7.67445 0.215598 8.60258L0.209973 8.65508C0.114348 9.2982 0.0468481 10.0632 0.0224731 10.8395V10.8695C0.0224731 10.9295 0.00934814 10.9857 0.00372314 11.0438V33.9638C0.0224731 34.2263 0.0355981 34.4945 0.0543481 34.7588C0.0918481 36.3732 0.433098 37.8957 1.02185 39.2888L0.991848 39.2082C1.54732 40.4668 2.37244 41.588 3.4089 42.4926C4.44536 43.3971 5.66785 44.063 6.98997 44.4432L7.0556 44.4601C7.76247 44.6682 8.58747 44.8201 9.43872 44.8857L9.47997 44.8876C10.5206 44.987 11.5612 45.0001 12.6056 45.0001H33.2831C34.3218 45.0001 35.3437 44.9307 36.345 44.7995L36.2268 44.8126C37.7782 44.6457 39.2688 44.1172 40.5787 43.2695L40.5393 43.2938C42.0739 42.2983 43.2892 40.8819 44.04 39.2138L44.0643 39.1538C44.3756 38.4357 44.6175 37.5995 44.7506 36.7295L44.7581 36.6713C44.9494 35.3994 45.0303 34.1134 45 32.8276V11.4882V11.4826ZM32.955 18.9638V29.6738L32.9568 29.8295C32.9568 30.5926 32.7881 31.3182 32.4843 31.967L32.4975 31.9351C32.2478 32.4553 31.8885 32.9153 31.444 33.2833C30.9996 33.6513 30.4807 33.9187 29.9231 34.067L29.895 34.0726C29.2479 34.26 28.5806 34.3689 27.9075 34.397H27.8887C27.8343 34.4007 27.7725 34.4007 27.7087 34.4007C26.914 34.4014 26.1425 34.1323 25.5207 33.6373C24.8989 33.1424 24.4636 32.451 24.286 31.6763C24.1085 30.9016 24.1992 30.0896 24.5434 29.3733C24.8876 28.6569 25.4649 28.0787 26.1806 27.7332L26.2012 27.7238C26.7506 27.4613 27.3918 27.2513 28.0593 27.1238L28.11 27.1163C28.8187 26.9626 29.5312 26.8295 30.2362 26.6663C30.4761 26.626 30.6973 26.5115 30.8689 26.339C31.0404 26.1665 31.1535 25.9446 31.1925 25.7045V25.6988C31.218 25.5824 31.2306 25.4636 31.23 25.3445V15.1295C31.2287 15.009 31.2116 14.8892 31.1793 14.7732L31.1812 14.7826C31.1561 14.6536 31.085 14.5381 30.9813 14.4574C30.8775 14.3768 30.7481 14.3364 30.6168 14.3438H30.6187C30.285 14.3682 29.9812 14.4113 29.6831 14.4751L29.7281 14.4676C28.3031 14.7488 26.8781 15.0338 25.4531 15.3226L18.5156 16.7251C18.4856 16.7251 18.4556 16.7438 18.4256 16.7495C18.2079 16.7785 18.0101 16.8909 17.8737 17.063C17.7373 17.2351 17.673 17.4534 17.6943 17.672V17.6682V32.5388L17.6962 32.717C17.6962 33.482 17.5481 34.2113 17.2762 34.877L17.2893 34.8376C17.0486 35.4044 16.6805 35.9082 16.2135 36.3098C15.7466 36.7114 15.1934 37 14.5968 37.1532L14.5687 37.1588C13.918 37.3499 13.2459 37.4583 12.5681 37.4813H12.5531C11.7046 37.5295 10.8682 37.2628 10.2042 36.7324C9.54025 36.202 9.0954 35.4451 8.95497 34.607L8.9531 34.5863C8.80671 33.7916 8.93977 32.9707 9.32972 32.2629C9.71967 31.5551 10.3425 31.0041 11.0925 30.7032L11.1168 30.6957C11.7665 30.4396 12.4397 30.2481 13.1268 30.1238L13.1943 30.1145C13.7325 30.002 14.2725 29.897 14.8068 29.7826C15.1193 29.7375 15.405 29.5813 15.6116 29.3426C15.8182 29.104 15.9319 28.7989 15.9318 28.4832V28.442V28.4438V11.4938C15.9318 11.252 15.96 11.0176 16.0143 10.7926L16.0106 10.8132C16.0699 10.5715 16.1971 10.3519 16.3772 10.1801C16.5573 10.0084 16.7827 9.89171 17.0268 9.84383L17.0343 9.84195C17.5125 9.7182 18 9.63195 18.4856 9.53258C19.86 9.25133 21.2343 8.97008 22.6106 8.70008L26.8668 7.83758C28.1231 7.58633 29.3793 7.33133 30.6356 7.08758C30.975 7.00883 31.3987 6.93945 31.83 6.89258L31.8806 6.88883C32.0094 6.87275 32.1401 6.88397 32.2642 6.92175C32.3883 6.95952 32.5031 7.02301 32.6011 7.10808C32.6991 7.19316 32.7781 7.29791 32.8329 7.41551C32.8877 7.53312 32.9172 7.66096 32.9193 7.7907C32.9343 7.91633 32.9418 8.0607 32.9418 8.20695V18.9563L32.955 18.9638Z" fill="white"/>
</g>
<defs>
<clipPath id="clip0_8_4505">
<rect width="45" height="45" fill="white"/>
</clipPath>
</defs>
</svg>
