<svg width="25" height="25" viewBox="0 0 25 25" fill="none" xmlns="http://www.w3.org/2000/svg">
<path fill-rule="evenodd" clip-rule="evenodd" d="M7.776 1.11044C8.99788 1.05419 9.38746 1.04169 12.5 1.04169C15.6125 1.04169 16.002 1.05523 17.2229 1.11044C18.4437 1.16565 19.277 1.36044 20.0062 1.64273C20.7697 1.93127 21.4625 2.38231 22.0354 2.96565C22.6187 3.53752 23.0687 4.22919 23.3562 4.99377C23.6395 5.72294 23.8333 6.55627 23.8895 7.77502C23.9458 8.99898 23.9583 9.38856 23.9583 12.5C23.9583 15.6125 23.9448 16.0021 23.8895 17.224C23.8343 18.4427 23.6395 19.2761 23.3562 20.0052C23.0687 20.7699 22.618 21.4627 22.0354 22.0354C21.4625 22.6188 20.7697 23.0688 20.0062 23.3563C19.277 23.6396 18.4437 23.8334 17.225 23.8896C16.002 23.9459 15.6125 23.9584 12.5 23.9584C9.38746 23.9584 8.99788 23.9448 7.776 23.8896C6.55725 23.8344 5.72392 23.6396 4.99475 23.3563C4.23008 23.0687 3.53727 22.618 2.96454 22.0354C2.38161 21.4632 1.9305 20.7707 1.64267 20.0063C1.36038 19.2771 1.16663 18.4438 1.11038 17.225C1.05413 16.0011 1.04163 15.6115 1.04163 12.5C1.04163 9.38752 1.05517 8.99794 1.11038 7.7771C1.16558 6.55627 1.36038 5.72294 1.64267 4.99377C1.93092 4.22927 2.38237 3.5368 2.96558 2.9646C3.5375 2.38179 4.22962 1.93069 4.99371 1.64273C5.72288 1.36044 6.55621 1.16669 7.77496 1.11044H7.776ZM17.1302 3.17294C15.9218 3.11773 15.5593 3.10627 12.5 3.10627C9.44058 3.10627 9.07808 3.11773 7.86975 3.17294C6.75204 3.22398 6.14579 3.41044 5.74163 3.56773C5.20725 3.77606 4.82496 4.02294 4.42392 4.42398C4.04376 4.79382 3.75119 5.24406 3.56767 5.74169C3.41038 6.14585 3.22392 6.7521 3.17288 7.86981C3.11767 9.07814 3.10621 9.44064 3.10621 12.5C3.10621 15.5594 3.11767 15.9219 3.17288 17.1302C3.22392 18.2479 3.41038 18.8542 3.56767 19.2584C3.751 19.7552 4.04371 20.2063 4.42392 20.5761C4.79371 20.9563 5.24475 21.249 5.74163 21.4323C6.14579 21.5896 6.75204 21.7761 7.86975 21.8271C9.07808 21.8823 9.43954 21.8938 12.5 21.8938C15.5604 21.8938 15.9218 21.8823 17.1302 21.8271C18.2479 21.7761 18.8541 21.5896 19.2583 21.4323C19.7927 21.224 20.175 20.9771 20.576 20.5761C20.9562 20.2063 21.2489 19.7552 21.4323 19.2584C21.5895 18.8542 21.776 18.2479 21.827 17.1302C21.8823 15.9219 21.8937 15.5594 21.8937 12.5C21.8937 9.44064 21.8823 9.07814 21.827 7.86981C21.776 6.7521 21.5895 6.14585 21.4323 5.74169C21.2239 5.20731 20.977 4.82502 20.576 4.42398C20.2061 4.04384 19.7559 3.75128 19.2583 3.56773C18.8541 3.41044 18.2479 3.22398 17.1302 3.17294V3.17294ZM11.0364 16.0323C11.8538 16.3726 12.7639 16.4185 13.6113 16.1622C14.4588 15.906 15.191 15.3635 15.6829 14.6274C16.1748 13.8912 16.3958 13.0072 16.3083 12.1262C16.2208 11.2452 15.8302 10.4219 15.2031 9.79689C14.8033 9.39739 14.32 9.09149 13.7878 8.90121C13.2556 8.71094 12.6879 8.64102 12.1255 8.69649C11.563 8.75197 11.0199 8.93145 10.5352 9.22203C10.0504 9.51261 9.63615 9.90705 9.32215 10.3769C9.00815 10.8469 8.80224 11.3805 8.71925 11.9396C8.63625 12.4986 8.67824 13.0691 8.84219 13.6099C9.00613 14.1508 9.28796 14.6486 9.66738 15.0674C10.0468 15.4863 10.5144 15.8158 11.0364 16.0323ZM8.33538 8.33544C8.88228 7.78854 9.53154 7.35471 10.2461 7.05873C10.9607 6.76275 11.7265 6.61041 12.5 6.61041C13.2734 6.61041 14.0393 6.76275 14.7538 7.05873C15.4684 7.35471 16.1176 7.78854 16.6645 8.33544C17.2114 8.88234 17.6453 9.5316 17.9412 10.2462C18.2372 10.9607 18.3896 11.7266 18.3896 12.5C18.3896 13.2735 18.2372 14.0393 17.9412 14.7539C17.6453 15.4684 17.2114 16.1177 16.6645 16.6646C15.56 17.7691 14.062 18.3896 12.5 18.3896C10.9379 18.3896 9.43989 17.7691 8.33538 16.6646C7.23086 15.5601 6.61035 14.062 6.61035 12.5C6.61035 10.938 7.23086 9.43995 8.33538 8.33544V8.33544ZM19.6958 7.48752C19.8313 7.35968 19.9398 7.20594 20.0149 7.03541C20.0899 6.86488 20.13 6.68103 20.1327 6.49474C20.1354 6.30845 20.1007 6.12351 20.0307 5.95086C19.9606 5.77822 19.8567 5.62139 19.7249 5.48964C19.5932 5.3579 19.4363 5.25393 19.2637 5.18389C19.0911 5.11385 18.9061 5.07916 18.7198 5.08188C18.5335 5.08459 18.3497 5.12466 18.1792 5.1997C18.0086 5.27475 17.8549 5.38324 17.727 5.51877C17.4784 5.78234 17.3423 6.13244 17.3476 6.49474C17.3528 6.85704 17.4991 7.20302 17.7553 7.45923C18.0115 7.71544 18.3575 7.86172 18.7198 7.867C19.0821 7.87228 19.4322 7.73616 19.6958 7.48752V7.48752Z" fill="white"/>
</svg>
