<svg width="195" height="195" viewBox="0 0 195 195" fill="none" xmlns="http://www.w3.org/2000/svg">
<path d="M133.022 94.4206C145.779 94.4206 154.375 103.293 154.375 116.439C154.375 128.269 144.495 138.125 131.113 138.125C116.456 138.125 105.625 126.295 105.625 108.225C105.625 67.1531 135.574 50.7244 154.375 48.75V66.82C141.627 69.1194 127.294 81.9325 126.653 96.07C127.294 95.745 129.838 94.4206 133.022 94.4206ZM68.0306 94.4206C80.7706 94.4206 89.375 103.293 89.375 116.439C89.375 128.269 79.495 138.125 66.1131 138.125C51.4556 138.125 40.625 126.295 40.625 108.225C40.625 67.1531 70.5738 50.7244 89.375 48.75V66.82C76.6269 69.1194 62.2944 81.9325 61.6525 96.07C62.2944 95.745 64.8375 94.4206 68.0306 94.4206Z" fill="white" fill-opacity="0.2"/>
</svg>
